<svg width="32" height="32" viewBox="0 0 32 32" fill="none" xmlns="http://www.w3.org/2000/svg">
<path d="M27.3333 25.3335H6" stroke="#03854D" stroke-width="1.5" stroke-linecap="round"/>
<path d="M26.2669 25.3333V17.3333C26.2669 16.909 26.0983 16.502 25.7983 16.202C25.4982 15.9019 25.0912 15.7333 24.6669 15.7333H21.4669C21.0425 15.7333 20.6356 15.9019 20.3355 16.202C20.0355 16.502 19.8669 16.909 19.8669 17.3333V25.3333V7.2C19.8669 5.69173 19.8669 4.9376 19.3976 4.46933C18.9304 4 18.1762 4 16.6669 4C15.1586 4 14.4045 4 13.9362 4.46933C13.4669 4.93653 13.4669 5.69067 13.4669 7.2V25.3333V12C13.4669 11.5757 13.2983 11.1687 12.9983 10.8686C12.6982 10.5686 12.2912 10.4 11.8669 10.4H8.66689C8.24255 10.4 7.83558 10.5686 7.53552 10.8686C7.23547 11.1687 7.06689 11.5757 7.06689 12V25.3333" stroke="#03854D" stroke-width="1.5"/>
</svg>
