<svg width="40" height="40" viewBox="0 0 40 40" fill="none" xmlns="http://www.w3.org/2000/svg">
<rect width="40" height="40" rx="20" fill="#9BE887"/>
<path d="M17.1176 23.4118V25.5294M17.1176 14.2353V10M24.8824 24.8235V28.3529M24.8824 19.8824V14.9412M17.8235 14.2353H16.4118C16.0373 14.2353 15.6783 14.384 15.4135 14.6488C15.1487 14.9135 15 15.2726 15 15.6471V22C15 22.3744 15.1487 22.7335 15.4135 22.9983C15.6783 23.263 16.0373 23.4118 16.4118 23.4118H17.8235C18.198 23.4118 18.557 23.263 18.8218 22.9983C19.0866 22.7335 19.2353 22.3744 19.2353 22V15.6471C19.2353 15.2726 19.0866 14.9135 18.8218 14.6488C18.557 14.384 18.198 14.2353 17.8235 14.2353ZM25.5882 19.8824H24.1765C23.802 19.8824 23.443 20.0311 23.1782 20.2958C22.9134 20.5606 22.7647 20.9197 22.7647 21.2941V23.4118C22.7647 23.7862 22.9134 24.1453 23.1782 24.41C23.443 24.6748 23.802 24.8235 24.1765 24.8235H25.5882C25.9627 24.8235 26.3217 24.6748 26.5865 24.41C26.8513 24.1453 27 23.7862 27 23.4118V21.2941C27 20.9197 26.8513 20.5606 26.5865 20.2958C26.3217 20.0311 25.9627 19.8824 25.5882 19.8824Z" stroke="#03854D" stroke-linecap="round" stroke-linejoin="round"/>
</svg>
