<svg width="40" height="40" viewBox="0 0 40 40" fill="none" xmlns="http://www.w3.org/2000/svg">
<rect width="40" height="40" rx="20" fill="#9BE887"/>
<path d="M19.6331 14.0818C21.2114 14.0818 22.6565 14.4226 23.9684 15.1041C25.2799 15.7855 26.4148 16.7843 27.3733 18.1002L26.8082 18.4792C25.9483 17.2544 24.9119 16.3243 23.6991 15.6887C22.4862 15.0531 21.1309 14.7356 19.6331 14.7361C18.1818 14.7361 16.8559 15.0519 15.6555 15.6836C14.4552 16.3152 13.4032 17.2559 12.4996 18.5055L12 18.1147C12.9727 16.8061 14.1085 15.8071 15.4074 15.1177C16.7064 14.4282 18.1149 14.083 19.6331 14.0818ZM19.6331 16.0787C21.5512 16.0787 23.1819 16.7177 24.525 17.9957C25.8682 19.2737 26.54 20.8239 26.5406 22.6463C26.5406 23.3187 26.297 23.8874 25.8098 24.3525C25.3238 24.817 24.736 25.0493 24.0466 25.0493C23.3425 25.0493 22.7437 24.817 22.2503 24.3525C21.7574 23.8869 21.511 23.3181 21.511 22.6463C21.511 22.1602 21.3326 21.7464 20.9757 21.4048C20.6194 21.0626 20.1826 20.8916 19.6654 20.8916C19.1369 20.8916 18.6919 21.0626 18.3305 21.4048C17.9685 21.7464 17.7875 22.1602 17.7875 22.6463C17.7875 23.9917 18.1968 25.1473 19.0154 26.1132C19.8334 27.079 21.0119 27.79 22.5511 28.246L22.3718 28.879C20.7199 28.4292 19.434 27.6608 18.514 26.5737C17.5941 25.4872 17.1341 24.178 17.1341 22.6463C17.1341 21.9744 17.3808 21.4051 17.8742 20.9383C18.3676 20.4715 18.9647 20.2381 19.6654 20.2381C20.3548 20.2381 20.9437 20.4715 21.432 20.9383C21.9197 21.4051 22.1636 21.9744 22.1636 22.6463C22.1636 23.1323 22.3455 23.5464 22.7091 23.8886C23.0723 24.2307 23.5181 24.4018 24.0466 24.4018C24.5604 24.4018 24.9955 24.2307 25.3518 23.8886C25.7087 23.5464 25.8871 23.1323 25.8871 22.6463C25.8871 20.9989 25.281 19.6008 24.0687 18.452C22.8576 17.302 21.3804 16.727 19.6374 16.727C17.9164 16.727 16.45 17.302 15.2383 18.452C14.0272 19.6008 13.4216 20.9972 13.4216 22.6412C13.4216 23.1045 13.4748 23.6059 13.5813 24.1452C13.6878 24.6845 13.8612 25.3102 14.1014 26.0222L13.5159 26.2874C13.261 25.6138 13.0726 24.9765 12.9508 24.3755C12.8291 23.7739 12.7682 23.1975 12.7682 22.6463C12.7682 20.8239 13.4352 19.2737 14.7693 17.9957C16.1033 16.7177 17.7252 16.0787 19.6331 16.0787ZM19.6654 12C20.5752 12 21.4609 12.1133 22.3225 12.3399C23.1841 12.5665 24.0962 12.9293 25.0586 13.4284L24.7833 14.0351C23.9262 13.5502 23.0878 13.1987 22.2681 12.9806C21.4484 12.7625 20.5809 12.6537 19.6654 12.6543C18.8072 12.6543 17.9733 12.7648 17.1638 12.9857C16.3543 13.2066 15.4901 13.5542 14.5713 14.0283L14.3521 13.4479C15.2108 12.9568 16.0736 12.5928 16.9403 12.356C17.8071 12.1192 18.716 12.0006 19.6654 12ZM19.6646 18.1563C21.0372 18.1563 22.165 18.6098 23.0482 19.5167C23.9308 20.4242 24.3721 21.5765 24.3721 22.9734H23.7186C23.7186 21.7594 23.3396 20.7621 22.5817 19.9815C21.8232 19.1998 20.8508 18.8089 19.6646 18.8089C18.5412 18.8089 17.5864 19.1847 16.8001 19.9365C16.0138 20.6882 15.621 21.5915 15.6215 22.6463C15.6215 23.726 15.8099 24.6785 16.1866 25.5039C16.5633 26.3287 17.242 27.258 18.2226 28.2919L17.7586 28.7567C16.7508 27.6843 16.0337 26.6845 15.6071 25.7571C15.1805 24.8292 14.9673 23.7923 14.9673 22.6463C14.9673 21.3938 15.423 20.3322 16.3345 19.4615C17.2454 18.5914 18.3548 18.1563 19.6646 18.1563ZM20.6706 25.7886C20.2175 25.3637 19.8759 24.8624 19.6459 24.2845C19.4159 23.7067 19.3009 23.0519 19.3009 22.32H19.9552C19.9552 22.968 20.0543 23.543 20.2526 24.0449C20.4508 24.5474 20.7449 24.9793 21.1346 25.3408C21.5028 25.6778 21.9223 25.9375 22.393 26.12C22.8638 26.3024 23.3583 26.3936 23.8767 26.3936C24.0846 26.3936 24.2882 26.3769 24.4876 26.3434C24.687 26.31 24.8876 26.2726 25.0892 26.2313L25.2209 26.815C25.0023 26.8847 24.7816 26.9408 24.559 26.9833C24.3369 27.0258 24.1095 27.047 23.8767 27.047C23.2751 27.047 22.6972 26.9399 22.1432 26.7258C21.5892 26.5117 21.0983 26.1993 20.6706 25.7886Z" fill="#03854D"/>
</svg>
