<svg width="41" height="40" viewBox="0 0 41 40" fill="none" xmlns="http://www.w3.org/2000/svg">
<rect x="0.5" width="40" height="40" rx="20" fill="#9BE887"/>
<path d="M21.3019 25.5315C21.7448 25.5315 22.1038 25.1725 22.1038 24.7296C22.1038 24.2868 21.7448 23.9277 21.3019 23.9277C20.859 23.9277 20.5 24.2868 20.5 24.7296C20.5 25.1725 20.859 25.5315 21.3019 25.5315Z" fill="#03854D"/>
<path d="M24.8791 27.937H17.2979C16.7948 27.907 16.3239 27.6795 15.9876 27.3041C15.6514 26.9286 15.477 26.4356 15.5024 25.9323V14.0048C15.477 13.5014 15.6514 13.0084 15.9876 12.6329C16.3239 12.2575 16.7948 12.03 17.2979 12H24.8791C25.3822 12.03 25.8531 12.2575 26.1893 12.6329C26.5256 13.0084 26.7 13.5014 26.6745 14.0048V25.9323C26.7 26.4356 26.5256 26.9286 26.1893 27.3041C25.8531 27.6795 25.3822 27.907 24.8791 27.937ZM17.2979 12.8019C17.0078 12.8325 16.7413 12.9757 16.5556 13.2005C16.3698 13.4254 16.2796 13.7141 16.3043 14.0048V25.9323C16.2796 26.2229 16.3698 26.5116 16.5556 26.7365C16.7413 26.9614 17.0078 27.1045 17.2979 27.1351H24.8791C25.1691 27.1045 25.4356 26.9614 25.6214 26.7365C25.8071 26.5116 25.8973 26.2229 25.8726 25.9323V14.0048C25.8973 13.7141 25.8071 13.4254 25.6214 13.2005C25.4356 12.9757 25.1691 12.8325 24.8791 12.8019H17.2979Z" fill="#03854D"/>
</svg>
