<svg width="108" height="43" viewBox="0 0 108 43" fill="none" xmlns="http://www.w3.org/2000/svg">
<path d="M45.2062 36.6703H41.285V26.6955H37.5264V23.5875H48.9106V26.6955H45.2062V36.6703Z" fill="#070707"/>
<path d="M58.0494 31.1046L60.7961 36.6703H56.5677L54.3993 32.0443H53.7849V36.6703H49.8817V23.5875H55.61C58.8626 23.5875 60.0552 25.3403 60.0552 27.3822C60.0552 29.2976 59.224 30.418 58.0494 31.1046ZM53.7849 29.2253H54.2185C55.0678 29.2253 56.0256 28.9904 56.0256 27.7617C56.0256 27.0389 55.6642 26.4968 54.598 26.4968H53.7849V29.2253Z" fill="#070707"/>
<path d="M65.7144 31.719V33.4899H71.1897V36.6703H61.7932V23.5875H70.7379V26.6955H65.7144V28.7375H70.485V31.719H65.7144Z" fill="#070707"/>
<path d="M81.952 26.3883L76.7478 33.4899H82.1689V36.6703H72.0857V33.8875L77.4887 26.6955H72.1941V23.5875H81.952V26.3883Z" fill="#070707"/>
<path d="M88.8063 36.8871C84.2165 36.8871 82.4817 34.1224 82.4817 30.2373C82.4817 26.3522 84.6321 23.3525 89.1315 23.3525C93.6491 23.3525 95.3296 26.3522 95.3296 29.9843C95.3296 34.2127 93.3238 36.8871 88.8063 36.8871ZM88.9508 33.8513C90.3603 33.8513 91.318 33.0382 91.318 30.1469C91.318 27.4003 90.5772 26.4425 89.0412 26.4425C87.3787 26.4425 86.5294 27.4545 86.5294 30.1469C86.5294 33.002 87.3426 33.8513 88.9508 33.8513Z" fill="#070707"/>
<path d="M104.866 31.1046L107.613 36.6703H103.384L101.216 32.0443H100.601V36.6703H96.6983V23.5875H102.427C105.679 23.5875 106.872 25.3403 106.872 27.3822C106.872 29.2976 106.041 30.418 104.866 31.1046ZM100.601 29.2253H101.035C101.884 29.2253 102.842 28.9904 102.842 27.7617C102.842 27.0389 102.481 26.4968 101.415 26.4968H100.601V29.2253Z" fill="#070707"/>
<path d="M41.8048 14.0073V18.163H38.376V6.72299H46.1343V9.44078H41.8048V11.4159H45.7551V14.0073H41.8048Z" fill="#070707"/>
<path d="M51.9743 15.698C53.3648 15.698 53.428 14.9396 53.428 13.3278V6.72299H56.8252V13.7861C56.8252 17.0727 54.7395 18.3526 51.8795 18.3526C48.4981 18.3526 47.0286 16.9621 47.0286 13.6913V6.72299H50.4574V13.2646C50.4574 14.7657 50.4732 15.698 51.9743 15.698Z" fill="#070707"/>
<path d="M64.2541 18.163H60.8252V9.44078H57.5386V6.72299H67.4933V9.44078H64.2541V18.163Z" fill="#070707"/>
<path d="M73.1144 15.698C74.5049 15.698 74.5681 14.9396 74.5681 13.3278V6.72299H77.9653V13.7861C77.9653 17.0727 75.8796 18.3526 73.0196 18.3526C69.6382 18.3526 68.1687 16.9621 68.1687 13.6913V6.72299H71.5975V13.2646C71.5975 14.7657 71.6133 15.698 73.1144 15.698Z" fill="#070707"/>
<path d="M86.5793 13.2962L88.981 18.163H85.2836L83.3875 14.1179H82.8502V18.163H79.4372V6.72299H84.4461C87.2903 6.72299 88.3332 8.2557 88.3332 10.0412C88.3332 11.7161 87.6063 12.6958 86.5793 13.2962ZM82.8502 11.6529H83.2294C83.9721 11.6529 84.8096 11.4475 84.8096 10.373C84.8096 9.741 84.4935 9.26697 83.5613 9.26697H82.8502V11.6529Z" fill="#070707"/>
<path d="M93.2818 13.8335V15.382H98.0695V18.163H89.8529V6.72299H97.6745V9.44078H93.2818V11.2263H97.4533V13.8335H93.2818Z" fill="#070707"/>
<path d="M103.339 8.91934C102.691 8.91934 102.249 9.14056 102.249 9.6936C102.249 10.4046 103.134 10.6575 104.224 10.9419C105.883 11.3685 108 11.9373 108 14.4813C108 17.2465 105.709 18.3526 103.276 18.3526C101.569 18.3526 98.6935 18.084 98.5829 14.5445L101.617 14.1337C101.743 15.1292 101.98 15.9192 103.371 15.9192C104.176 15.9192 104.714 15.6506 104.714 14.9554C104.714 14.2285 103.829 14.0073 102.754 13.7545C101.079 13.3594 98.9621 12.8538 98.9621 10.215C98.9621 7.76586 101.016 6.51758 103.45 6.51758C105.52 6.51758 107.716 6.97581 107.811 9.91481L104.714 10.2624C104.714 9.20376 104.271 8.91934 103.339 8.91934Z" fill="#070707"/>
<path d="M6.55928 16.1009L3 16.8812V35.3894L14.7456 40.0165L26.4912 35.3894V16.8812L22.932 16.1009M6.55928 16.1009V11.1863C6.55928 6.66514 10.2244 3 14.7456 3V3C19.2668 3 22.932 6.66515 22.932 11.1863V16.1009M6.55928 16.1009H14.2939H22.932" stroke="#070707" stroke-width="4.51754"/>
</svg>
